<svg xmlns="http://www.w3.org/2000/svg" viewBox="0 0 800 450" width="800" height="450" font-family="-apple-system, Segoe UI, Inter, Arial, sans-serif">
  <defs>
    <linearGradient id="fill" x1="0" y1="0" x2="0" y2="1">
      <stop offset="0%" stop-color="#46d19b" stop-opacity="0.35"/>
      <stop offset="100%" stop-color="#46d19b" stop-opacity="0"/>
    </linearGradient>
  </defs>
  <rect width="800" height="450" fill="#14171d"/>
  <text x="40" y="52" fill="#e7e9ee" font-size="21" font-weight="600">Latency vs. output length</text>
  <text x="40" y="76" fill="#6b7383" font-size="13">ms per request · vLLM 0.6.3 · single RTX 4090</text>

  <g stroke="#2a2f3a" stroke-width="1">
    <line x1="80" y1="120" x2="750" y2="120"/>
    <line x1="80" y1="180" x2="750" y2="180"/>
    <line x1="80" y1="240" x2="750" y2="240"/>
    <line x1="80" y1="300" x2="750" y2="300"/>
    <line x1="80" y1="360" x2="750" y2="360"/>
  </g>
  <g fill="#6b7383" font-size="11" text-anchor="end">
    <text x="70" y="124">800</text>
    <text x="70" y="184">600</text>
    <text x="70" y="244">400</text>
    <text x="70" y="304">200</text>
    <text x="70" y="364">0</text>
  </g>

  <path d="M80 340 L164 300 L248 268 L332 240 L416 214 L500 186 L584 162 L668 136 L750 118 L750 360 L80 360 Z" fill="url(#fill)"/>
  <path d="M80 340 L164 300 L248 268 L332 240 L416 214 L500 186 L584 162 L668 136 L750 118"
        fill="none" stroke="#46d19b" stroke-width="2.5" stroke-linejoin="round" stroke-linecap="round"/>
  <g fill="#46d19b">
    <circle cx="80" cy="340" r="3.6"/><circle cx="164" cy="300" r="3.6"/><circle cx="248" cy="268" r="3.6"/>
    <circle cx="332" cy="240" r="3.6"/><circle cx="416" cy="214" r="3.6"/><circle cx="500" cy="186" r="3.6"/>
    <circle cx="584" cy="162" r="3.6"/><circle cx="668" cy="136" r="3.6"/><circle cx="750" cy="118" r="3.6"/>
  </g>

  <g fill="#6b7383" font-size="11" text-anchor="middle">
    <text x="80" y="386">64</text>
    <text x="248" y="386">192</text>
    <text x="416" y="386">384</text>
    <text x="584" y="386">576</text>
    <text x="750" y="386">768</text>
  </g>
  <text x="415" y="410" fill="#6b7383" font-size="11" text-anchor="middle">generated tokens</text>
  <text x="40" y="424" fill="#6b7383" font-size="11">p50 612 ms · p95 1,180 ms · 42.1 tok/s</text>
</svg>
